<svg
   version="1.1"
   id="svg1"
   width="29.999992"
   height="30"
   viewBox="0 0 29.999992 30"
   xmlns="http://www.w3.org/2000/svg">
  <defs
     id="defs1">
    <clipPath
       clipPathUnits="userSpaceOnUse"
       id="clipPath125">
      <path
         d="M 0,0 H 592.44 V 846.68 H 0 Z"
         transform="translate(-105.2979,-56.668876)"
         id="path125" />
    </clipPath>
  </defs>
  <g
     id="layer-MC0"
     transform="translate(-113.92921,-1054.0655)">
    <path
       id="path124"
       d="M 0,0 C -0.003,-0.017 -0.008,-0.032 -0.011,-0.049 -0.05,-0.221 -0.093,-0.39 -0.14,-0.558 L -0.159,-0.623 C -0.211,-0.802 -0.267,-0.979 -0.329,-1.15 V -1.154 C -0.458,-1.521 -0.611,-1.88 -0.784,-2.229 L -0.787,-2.232 C -0.87,-2.398 -0.958,-2.563 -1.049,-2.723 L -1.072,-2.761 C -1.164,-2.923 -1.261,-3.08 -1.363,-3.233 l -3.415,-0.539 -1.689,2.228 1.02,4.081 3.516,1.172 2.114,-2.535 C 0.146,0.778 0.085,0.388 0,0 m -7.161,-7.336 c -0.173,-0.043 -0.351,-0.08 -0.528,-0.112 -0.025,-0.006 -0.051,-0.011 -0.076,-0.015 -0.151,-0.026 -0.304,-0.051 -0.457,-0.068 -0.041,-0.006 -0.082,-0.012 -0.122,-0.017 -0.143,-0.015 -0.286,-0.028 -0.43,-0.039 -0.045,-0.004 -0.09,-0.008 -0.136,-0.011 -0.184,-0.01 -0.369,-0.017 -0.556,-0.017 -0.172,0 -0.342,0.005 -0.511,0.011 -0.021,0 -0.04,0.005 -0.061,0.006 -0.15,0.009 -0.3,0.022 -0.449,0.036 l -0.018,0.002 c -0.328,0.037 -0.653,0.088 -0.976,0.157 l -2.047,3.206 1.65,2.2 h 4.823 l 1.678,-2.216 z m -10.405,4.102 c -0.102,0.154 -0.2,0.312 -0.292,0.473 l -0.023,0.039 c -0.092,0.159 -0.18,0.325 -0.262,0.49 l -0.003,0.003 c -0.173,0.349 -0.326,0.708 -0.456,1.075 v 0.004 c -0.061,0.171 -0.117,0.349 -0.169,0.527 l -0.019,0.066 c -0.047,0.167 -0.09,0.337 -0.129,0.508 -0.003,0.018 -0.008,0.032 -0.011,0.049 -0.085,0.388 -0.146,0.778 -0.183,1.174 l 2.113,2.535 3.517,-1.172 1.021,-4.082 -1.678,-2.23 z m 0.417,11.211 c 0.026,0.035 0.054,0.068 0.082,0.103 0.113,0.146 0.232,0.285 0.353,0.423 0.013,0.016 0.026,0.029 0.038,0.044 0.14,0.156 0.285,0.307 0.435,0.453 0.017,0.018 0.035,0.035 0.053,0.052 0.142,0.136 0.288,0.268 0.438,0.397 l 0.035,0.03 c 0.335,0.283 0.689,0.542 1.059,0.779 l 0.013,0.009 c 0.378,0.238 0.772,0.453 1.179,0.637 L -9.837,9.469 V 5.973 l -3.411,-2.73 -3.541,1.178 -0.72,3.058 c 0.115,0.171 0.235,0.334 0.36,0.498 m 8.053,1.492 3.611,1.442 c 0.409,-0.184 0.806,-0.398 1.186,-0.64 l 0.009,-0.004 c 0.374,-0.238 0.731,-0.498 1.069,-0.785 l 0.029,-0.025 c 0.151,-0.13 0.299,-0.263 0.442,-0.4 0.019,-0.019 0.037,-0.036 0.055,-0.054 0.151,-0.148 0.296,-0.298 0.437,-0.452 0.012,-0.015 0.023,-0.03 0.034,-0.04 C -2.1,8.371 -1.981,8.229 -1.866,8.082 -1.838,8.047 -1.811,8.014 -1.784,7.979 -1.659,7.816 -1.538,7.651 -1.423,7.48 L -2.143,4.422 -5.684,3.241 -9.095,5.972 Z m -0.37,2.993 c -5.736,0 -10.385,-4.65 -10.385,-10.385 0,-5.734 4.649,-10.385 10.385,-10.385 5.735,0 10.384,4.651 10.384,10.385 -0.006,5.734 -4.651,10.378 -10.384,10.385"
       style="fill:#13110c;fill-opacity:1;fill-rule:nonzero;stroke:none"
       transform="matrix(1.4444605,0,0,-1.4443909,142.60319,1072.0655)"
       clip-path="url(#clipPath125)" />
  </g>
</svg>
