<svg
   version="1.1"
   id="svg1"
   width="29.999996"
   height="30"
   viewBox="0 0 29.999996 30"
   xmlns="http://www.w3.org/2000/svg">
  <defs
     id="defs1">
    <clipPath
       clipPathUnits="userSpaceOnUse"
       id="clipPath115">
      <path
         d="M 0,0 H 592.44 V 846.68 H 0 Z"
         transform="translate(-48.604501,-51.179701)"
         id="path115" />
    </clipPath>
    <clipPath
       clipPathUnits="userSpaceOnUse"
       id="clipPath117">
      <path
         d="M 0,0 H 592.44 V 846.68 H 0 Z"
         transform="translate(-43.714801,-63.162077)"
         id="path117" />
    </clipPath>
    <clipPath
       clipPathUnits="userSpaceOnUse"
       id="clipPath119">
      <path
         d="M 0,0 H 592.44 V 846.68 H 0 Z"
         transform="translate(-46.884301,-64.888727)"
         id="path119" />
    </clipPath>
    <clipPath
       clipPathUnits="userSpaceOnUse"
       id="clipPath121">
      <path
         d="M 0,0 H 592.44 V 846.68 H 0 Z"
         transform="translate(-50.055202,-63.162077)"
         id="path121" />
    </clipPath>
    <clipPath
       clipPathUnits="userSpaceOnUse"
       id="clipPath123">
      <path
         d="M 0,0 H 592.44 V 846.68 H 0 Z"
         transform="translate(-45.371101,-57.628876)"
         id="path123" />
    </clipPath>
  </defs>
  <g
     id="layer-MC0"
     transform="translate(-45.764668,-1053.8839)">
    <path
       id="path114"
       d="M 0,0 C 0.111,0.552 0.425,1.138 0.906,1.686 1.388,1.137 1.702,0.552 1.813,0 Z m 5.992,-1.696 v -0.395 h -18.45 v 0.395 c 0,0.46 0.375,0.834 0.835,0.834 h 16.78 c 0.46,0 0.835,-0.374 0.835,-0.834 M -7.373,1.686 C -6.891,1.138 -6.577,0.552 -6.466,0 h -1.813 c 0.111,0.552 0.425,1.138 0.906,1.686 M -3.697,0 H -5.511 C -5.4,0.552 -5.086,1.138 -4.604,1.686 -4.123,1.137 -3.809,0.552 -3.697,0 m 2.755,0 h -1.814 c 0.111,0.552 0.425,1.137 0.907,1.686 C -1.368,1.138 -1.054,0.552 -0.942,0 m -9.838,6.449 h 5.609 c 0.238,0 0.431,0.194 0.431,0.432 0,0.238 -0.193,0.431 -0.431,0.431 h -5.797 c -0.063,0.4 -0.096,0.806 -0.096,1.217 V 9.245 H 4.597 V 8.529 C 4.597,8.118 4.564,7.712 4.501,7.312 h -5.797 c -0.238,0 -0.431,-0.193 -0.431,-0.431 0,-0.238 0.193,-0.432 0.431,-0.432 H 4.313 C 3.86,4.819 2.882,3.36 1.506,2.31 1.412,2.413 1.312,2.519 1.208,2.619 1.04,2.782 0.773,2.782 0.605,2.619 0.146,2.172 -0.216,1.695 -0.471,1.21 -0.726,1.695 -1.088,2.172 -1.547,2.619 -1.715,2.782 -1.982,2.782 -2.15,2.619 -2.609,2.172 -2.972,1.695 -3.227,1.21 c -0.255,0.485 -0.617,0.962 -1.077,1.409 -0.167,0.163 -0.434,0.163 -0.602,0 -0.463,-0.451 -0.827,-0.932 -1.082,-1.421 -0.256,0.489 -0.62,0.971 -1.084,1.421 -0.168,0.163 -0.435,0.163 -0.602,0 -0.105,-0.1 -0.204,-0.205 -0.299,-0.309 -1.376,1.051 -2.354,2.51 -2.807,4.139 m -2.638,1.829 c 0,0.535 0.434,0.967 0.967,0.967 h 0.524 V 8.529 c 0,-0.41 0.03,-0.816 0.087,-1.217 h -0.611 c -0.533,0 -0.967,0.434 -0.967,0.966 m 2.123,7.524 c -0.11,0.296 0.016,0.616 0.287,0.728 0.277,0.116 0.592,-0.016 0.718,-0.301 l 2.716,-6.121 H -9.187 Z M 6.952,8.278 C 6.952,7.746 6.519,7.312 5.985,7.312 H 5.373 C 5.43,7.713 5.46,8.119 5.46,8.529 v 0.716 h 0.525 c 0.534,0 0.967,-0.432 0.967,-0.967 M 5.206,6.449 h 0.779 c 1.01,0 1.83,0.822 1.83,1.829 0,1.01 -0.821,1.83 -1.83,1.83 H 5.029 -6.63 l -2.871,6.47 c -0.317,0.717 -1.125,1.046 -1.839,0.749 -0.701,-0.292 -1.036,-1.095 -0.764,-1.826 l 1.997,-5.393 h -1.389 -0.955 c -1.009,0 -1.83,-0.82 -1.83,-1.83 0,-1.007 0.821,-1.829 1.83,-1.829 h 0.779 C -11.2,4.551 -10.091,2.845 -8.503,1.628 -8.855,1.095 -9.078,0.542 -9.156,0 h -2.467 c -0.937,0 -1.699,-0.762 -1.699,-1.696 v -0.825 c 0,-0.24 0.194,-0.433 0.432,-0.433 H 6.423 c 0.239,0 0.432,0.193 0.432,0.433 v 0.825 C 6.855,-0.762 6.093,0 5.157,0 H 2.69 C 2.612,0.541 2.39,1.095 2.037,1.627 3.625,2.845 4.734,4.551 5.206,6.449"
       style="fill:#13110c;fill-opacity:1;fill-rule:nonzero;stroke:none"
       transform="matrix(1.3577118,0,0,-1.4257619,65.154149,1079.6722)"
       clip-path="url(#clipPath115)" />
    <path
       id="path116"
       d="m 0,0 c 0.084,-0.12 0.218,-0.184 0.354,-0.184 0.085,0 0.171,0.026 0.247,0.08 0.195,0.135 0.243,0.404 0.106,0.599 -0.252,0.36 -0.252,0.993 0,1.355 0.46,0.657 0.46,1.687 0,2.343 C 0.57,4.39 0.301,4.437 0.106,4.3 -0.089,4.163 -0.137,3.895 0,3.698 0.252,3.338 0.252,2.705 0,2.345 -0.46,1.687 -0.46,0.657 0,0"
       style="fill:#13110c;fill-opacity:1;fill-rule:nonzero;stroke:none"
       transform="matrix(1.3577118,0,0,-1.4257619,58.515346,1062.5882)"
       clip-path="url(#clipPath117)" />
    <path
       id="path118"
       d="m 0,0 c 0.084,-0.12 0.218,-0.185 0.354,-0.185 0.085,0 0.172,0.027 0.247,0.081 C 0.796,0.03 0.844,0.301 0.707,0.495 0.455,0.855 0.455,1.487 0.708,1.85 1.167,2.508 1.167,3.536 0.707,4.193 0.57,4.39 0.301,4.437 0.106,4.3 -0.089,4.162 -0.137,3.896 0,3.698 0.252,3.338 0.252,2.704 0,2.345 -0.46,1.687 -0.46,0.657 0,0"
       style="fill:#13110c;fill-opacity:1;fill-rule:nonzero;stroke:none"
       transform="matrix(1.3577118,0,0,-1.4257619,62.818613,1060.1264)"
       clip-path="url(#clipPath119)" />
    <path
       id="path120"
       d="m 0,0 c 0.084,-0.12 0.218,-0.184 0.354,-0.184 0.085,0 0.171,0.026 0.247,0.08 0.195,0.135 0.243,0.404 0.106,0.599 -0.252,0.36 -0.252,0.993 0,1.355 0.46,0.657 0.46,1.687 0,2.343 C 0.57,4.39 0.301,4.437 0.106,4.3 -0.089,4.163 -0.137,3.895 0,3.698 0.252,3.338 0.252,2.705 0,2.345 -0.46,1.687 -0.46,0.657 0,0"
       style="fill:#13110c;fill-opacity:1;fill-rule:nonzero;stroke:none"
       transform="matrix(1.3577118,0,0,-1.4257619,67.123782,1062.5882)"
       clip-path="url(#clipPath121)" />
    <path
       id="path122"
       d="M 0,0 H 0.002 C 0.241,0 0.433,0.192 0.433,0.433 0.433,0.67 0.238,0.862 0,0.862 -0.238,0.862 -0.432,0.67 -0.432,0.433 -0.432,0.192 -0.238,0 0,0"
       style="fill:#13110c;fill-opacity:1;fill-rule:nonzero;stroke:none"
       transform="matrix(1.3577118,0,0,-1.4257619,60.764124,1070.4772)"
       clip-path="url(#clipPath123)" />
  </g>
</svg>
