<svg
   version="1.1"
   id="svg1"
   width="30"
   height="30"
   viewBox="0 0 30 30"
   xmlns="http://www.w3.org/2000/svg">
  <defs
     id="defs1">
    <clipPath
       clipPathUnits="userSpaceOnUse"
       id="clipPath127">
      <path
         d="M 0,0 H 592.44 V 846.68 H 0 Z"
         transform="translate(-156.6577,-61.871102)"
         id="path127" />
    </clipPath>
    <clipPath
       clipPathUnits="userSpaceOnUse"
       id="clipPath129">
      <path
         d="M 0,0 H 592.44 V 846.68 H 0 Z"
         transform="translate(-137.9092,-55.369126)"
         id="path129" />
    </clipPath>
  </defs>
  <g
     id="layer-MC0"
     transform="translate(-180.32427,-1052.746)">
    <path
       id="path126"
       d="m 0,0 -8.086,-2.288 v 1.28 L 0,1.28 Z m -1.333,-10.5 c -0.735,0 -1.333,0.599 -1.333,1.332 0,0.735 0.598,1.333 1.333,1.333 C -0.598,-7.835 0,-8.433 0,-9.168 0,-9.901 -0.598,-10.5 -1.333,-10.5 m -9.418,-2.666 c -0.735,0 -1.333,0.599 -1.333,1.333 0,0.734 0.598,1.333 1.333,1.333 0.734,0 1.333,-0.599 1.333,-1.333 0,-0.734 -0.599,-1.333 -1.333,-1.333 M 1.068,2.693 C 0.902,2.819 0.686,2.859 0.485,2.804 L -8.934,0.138 C -9.221,0.057 -9.419,-0.206 -9.419,-0.504 v -9.021 c -0.392,0.226 -0.847,0.357 -1.332,0.357 -1.471,0 -2.666,-1.194 -2.666,-2.665 0,-1.47 1.195,-2.666 2.666,-2.666 1.469,0 2.665,1.196 2.665,2.666 v 8.159 L 0,-1.385 v -5.474 c -0.393,0.226 -0.848,0.357 -1.333,0.357 -1.47,0 -2.666,-1.194 -2.666,-2.666 0,-1.47 1.196,-2.665 2.666,-2.665 1.47,0 2.666,1.195 2.666,2.665 v 11.33 c 0,0.208 -0.098,0.405 -0.265,0.531"
       style="fill:#13110c;fill-opacity:1;fill-rule:nonzero;stroke:none"
       transform="matrix(1.3188262,0,0,-1.3187701,208.56627,1063.6251)"
       clip-path="url(#clipPath127)" />
    <path
       id="path128"
       d="m 0,0 c -0.735,0 -1.333,0.599 -1.333,1.333 0,0.735 0.598,1.333 1.333,1.333 0.735,0 1.333,-0.598 1.333,-1.333 C 1.333,0.599 0.735,0 0,0 m 6.633,10.021 c -1.478,1.083 -2.562,2.157 -3.311,3.282 l -0.768,1.15 C 2.391,14.698 2.087,14.808 1.806,14.723 1.525,14.638 1.333,14.378 1.333,14.084 V 3.641 C 0.94,3.867 0.485,3.999 0,3.999 c -1.47,0 -2.666,-1.195 -2.666,-2.666 0,-1.47 1.196,-2.666 2.666,-2.666 1.47,0 2.666,1.196 2.666,2.666 V 11.935 C 3.462,10.907 4.509,9.925 5.845,8.944 6.358,8.568 6.664,7.967 6.664,7.331 c 0,-1.102 -0.897,-2 -1.999,-2 -0.368,0 -0.666,-0.298 -0.666,-0.666 0,-0.368 0.298,-0.666 0.666,-0.666 1.837,0 3.332,1.494 3.332,3.332 0,1.059 -0.51,2.064 -1.364,2.69"
       style="fill:#13110c;fill-opacity:1;fill-rule:nonzero;stroke:none"
       transform="matrix(1.3188262,0,0,-1.3187701,183.84025,1072.1997)"
       clip-path="url(#clipPath129)" />
  </g>
</svg>
